<svg width="375" height="812" viewBox="0 0 375 812" xmlns="http://www.w3.org/2000/svg">
  <defs>
    <linearGradient id="bg" x1="0" y1="0" x2="1" y2="1">
      <stop offset="0" stop-color="#0f172a"/>
      <stop offset="1" stop-color="#1e1b4b"/>
    </linearGradient>
    <filter id="shadow">
      <feDropShadow dx="0" dy="4" stdDeviation="4" flood-opacity="0.3"/>
    </filter>
  </defs>
  
  <!-- Background -->
  <rect width="100%" height="100%" fill="url(#bg)"/>
  
  <!-- Ambient Blobs -->
  <circle cx="0" cy="100" r="150" fill="#4f46e5" opacity="0.1" filter="blur(40px)"/>
  <circle cx="375" cy="700" r="150" fill="#22d3ee" opacity="0.1" filter="blur(40px)"/>

  <!-- Header -->
  <g transform="translate(20, 50)">
    <text font-family="sans-serif" font-weight="900" font-size="24" fill="url(#gradText)" style="font-style:italic">Warmify</text>
    <linearGradient id="gradText" x1="0" y1="0" x2="1" y2="0">
      <stop offset="0" stop-color="#22d3ee"/>
      <stop offset="1" stop-color="#3b82f6"/>
    </linearGradient>
    <!-- Settings Icon Mock -->
    <circle cx="315" cy="-8" r="16" fill="#1e293b" stroke="#334155"/>
  </g>

  <!-- Hero Card -->
  <g transform="translate(20, 100)">
    <rect width="335" height="400" rx="24" fill="#1e293b" fill-opacity="0.8" stroke="#4f46e5" stroke-opacity="0.3" filter="url(#shadow)"/>
    
    <!-- Content inside Card -->
    <text x="20" y="40" font-family="sans-serif" font-weight="900" font-size="28" fill="white" style="font-style:italic">DAILY OP</text>
    <text x="20" y="65" font-family="sans-serif" font-size="14" fill="#94a3b8">Full Body Sequence</text>
    
    <!-- Streak Badge -->
    <rect x="250" y="20" width="60" height="24" rx="8" fill="#f97316" fill-opacity="0.2" stroke="#f97316"/>
    <text x="280" y="37" text-anchor="middle" font-family="sans-serif" font-weight="bold" font-size="12" fill="#fb923c">⚡ 12</text>

    <!-- Character Preview Mock -->
    <g transform="translate(167, 200)">
       <circle r="60" fill="#4f46e5" opacity="0.1" filter="blur(10px)"/>
       <!-- Simple Skeleton Stickman -->
       <line x1="0" y1="-30" x2="0" y2="30" stroke="#22d3ee" stroke-width="4"/>
       <line x1="-20" y1="0" x2="20" y2="0" stroke="#22d3ee" stroke-width="4"/>
       <circle cx="0" cy="-40" r="10" fill="white"/>
    </g>

    <!-- XP Bar -->
    <g transform="translate(20, 290)">
        <text x="0" y="0" font-family="monospace" font-size="10" fill="#34d399">LVL 12</text>
        <text x="295" y="0" text-anchor="end" font-family="monospace" font-size="10" fill="#34d399">XP 850/1000</text>
        <rect y="10" width="295" height="6" rx="3" fill="#0f172a"/>
        <rect y="10" width="250" height="6" rx="3" fill="#34d399"/>
    </g>

    <!-- CTA Button -->
    <g transform="translate(20, 330)">
        <rect width="295" height="50" rx="16" fill="white"/>
        <text x="147" y="32" text-anchor="middle" font-family="sans-serif" font-weight="900" font-size="16" fill="#1e1b4b">INITIATE MISSION</text>
    </g>
  </g>

  <!-- Trophy Row -->
  <g transform="translate(20, 520)">
      <text font-family="sans-serif" font-weight="bold" font-size="12" fill="#64748b" letter-spacing="2">AGENT ACCOLADES</text>
      <g transform="translate(0, 15)">
          <rect width="70" height="90" rx="12" fill="#1e293b" stroke="#334155"/>
          <text x="35" y="50" text-anchor="middle" font-size="24">🏆</text>
          
          <rect x="80" y="0" width="70" height="90" rx="12" fill="#1e293b" stroke="#334155"/>
          <text x="115" y="50" text-anchor="middle" font-size="24">🔥</text>

          <rect x="160" y="0" width="70" height="90" rx="12" fill="#1e293b" stroke="#334155"/>
          <text x="195" y="50" text-anchor="middle" font-size="24">⚡</text>

          <rect x="240" y="0" width="70" height="90" rx="12" fill="#1e293b" opacity="0.5" stroke="#334155"/>
          <text x="275" y="50" text-anchor="middle" font-size="24">🔒</text>
      </g>
  </g>

  <!-- Stats -->
  <g transform="translate(20, 650)">
      <rect width="160" height="80" rx="16" fill="#1e293b" stroke="#334155"/>
      <text x="80" y="30" text-anchor="middle" font-size="10" fill="#94a3b8" font-weight="bold">TOTAL SCORE</text>
      <text x="80" y="60" text-anchor="middle" font-size="24" fill="white" font-weight="900">15,400</text>
      
      <rect x="175" width="160" height="80" rx="16" fill="#1e293b" stroke="#334155"/>
      <text x="255" y="30" text-anchor="middle" font-size="10" fill="#94a3b8" font-weight="bold">WORKOUTS</text>
      <text x="255" y="60" text-anchor="middle" font-size="24" fill="white" font-weight="900">42</text>
  </g>

</svg>